<svg width="552" height="547" viewBox="0 0 552 547" fill="none" xmlns="http://www.w3.org/2000/svg">
<g clip-path="url(#clip0_36_16)">
<path d="M415.646 114H135.289C121.86 114 111 124.308 111 137.053V410.746C111 423.491 121.86 433.861 135.289 433.861H415.646C429.076 433.861 440 423.491 440 410.809V137.053C440 124.308 429.076 114 415.646 114ZM208.608 386.569H159.772V233.885H208.608V386.569ZM184.19 213.082C168.511 213.082 155.852 200.775 155.852 185.594C155.852 170.413 168.511 158.106 184.19 158.106C199.804 158.106 212.463 170.413 212.463 185.594C212.463 200.712 199.804 213.082 184.19 213.082ZM391.357 386.569H342.585V312.351C342.585 294.672 342.264 271.869 317.203 271.869C291.821 271.869 287.966 291.173 287.966 311.102V386.569H239.259V233.885H286.038V254.751H286.681C293.171 242.757 309.107 230.075 332.818 230.075C382.232 230.075 391.357 261.686 391.357 302.793V386.569V386.569Z" fill="white"/>
</g>
<defs>
<clipPath id="clip0_36_16">
<rect width="329" height="319.861" fill="white" transform="translate(111 114)"/>
</clipPath>
</defs>
</svg>
